<svg width="20" height="20" viewBox="0 0 20 20" fill="none" xmlns="http://www.w3.org/2000/svg">
<path d="M5 3C5 4.062 4.29 4.976 2.999 4.976C1.784 4.976 1 4.114 1 3.052C1 1.962 1.76 1 3 1C4.24 1 4.976 1.91 5 3ZM1 19V6H5V19H1Z" fill="#18191F" fill-opacity="0.8"/>
<path d="M6.99995 10.4439C6.99995 8.89894 6.94895 7.60794 6.89795 6.49294H10.4919L10.6699 8.21594H10.7459C11.2519 7.40494 12.4919 6.21594 14.5679 6.21594C17.0999 6.21594 18.9999 7.91094 18.9999 11.5579V18.9999H14.9999V12.1389C14.9999 10.5449 14.3929 9.32894 12.9999 9.32894C11.9379 9.32894 11.4059 10.1889 11.1269 10.8979C11.0249 11.1519 10.9999 11.5059 10.9999 11.8609V18.9999H6.99995V10.4439Z" fill="#18191F" fill-opacity="0.8"/>
</svg>
