<svg width="32" height="19" viewBox="0 0 32 19" fill="none" xmlns="http://www.w3.org/2000/svg">
<path d="M14.52 3.864H9.072V18H5.784V3.864H0.336V0.959999H14.52V3.864ZM13.5969 14.28C13.5969 13.464 13.8209 12.752 14.2689 12.144C14.7329 11.52 15.3729 11.04 16.1889 10.704C17.0049 10.368 17.9409 10.2 18.9969 10.2C19.5249 10.2 20.0609 10.24 20.6049 10.32C21.1489 10.4 21.6209 10.528 22.0209 10.704V10.032C22.0209 9.232 21.7809 8.616 21.3009 8.184C20.8369 7.752 20.1409 7.536 19.2129 7.536C18.5249 7.536 17.8689 7.656 17.2449 7.896C16.6209 8.136 15.9649 8.488 15.2769 8.952L14.2449 6.84C15.0769 6.296 15.9249 5.888 16.7889 5.616C17.6689 5.344 18.5889 5.208 19.5489 5.208C21.3409 5.208 22.7329 5.656 23.7249 6.552C24.7329 7.448 25.2369 8.728 25.2369 10.392V14.4C25.2369 14.736 25.2929 14.976 25.4049 15.12C25.5329 15.264 25.7329 15.352 26.0049 15.384V18C25.7169 18.048 25.4529 18.088 25.2129 18.12C24.9889 18.152 24.7969 18.168 24.6369 18.168C23.9969 18.168 23.5089 18.024 23.1729 17.736C22.8529 17.448 22.6529 17.096 22.5729 16.68L22.5009 16.032C21.9569 16.736 21.2769 17.28 20.4609 17.664C19.6449 18.048 18.8129 18.24 17.9649 18.24C17.1329 18.24 16.3809 18.072 15.7089 17.736C15.0529 17.384 14.5329 16.912 14.1489 16.32C13.7809 15.712 13.5969 15.032 13.5969 14.28ZM21.4209 14.928C21.5969 14.736 21.7409 14.544 21.8529 14.352C21.9649 14.16 22.0209 13.984 22.0209 13.824V12.552C21.6369 12.392 21.2209 12.272 20.7729 12.192C20.3249 12.096 19.9009 12.048 19.5009 12.048C18.6689 12.048 17.9809 12.232 17.4369 12.6C16.9089 12.952 16.6449 13.424 16.6449 14.016C16.6449 14.336 16.7329 14.64 16.9089 14.928C17.0849 15.216 17.3409 15.448 17.6769 15.624C18.0129 15.8 18.4129 15.888 18.8769 15.888C19.3569 15.888 19.8289 15.8 20.2929 15.624C20.7569 15.432 21.1329 15.2 21.4209 14.928Z" fill="#18191F"/>
<path d="M28.3701 18V14.544H31.0101V18H28.3701Z" fill="#2471B9"/>
</svg>
