<svg width="20" height="20" viewBox="0 0 20 20" fill="none" xmlns="http://www.w3.org/2000/svg">
<path d="M17.316 6.24605C17.324 6.40805 17.327 6.57205 17.327 6.73405C17.327 11.7241 13.53 17.4761 6.58705 17.4761C4.45405 17.4761 2.47105 16.8511 0.800049 15.7791C1.78842 15.8986 2.79067 15.8221 3.74949 15.5541C4.70831 15.2861 5.60491 14.8318 6.38805 14.2171C5.60047 14.2022 4.83722 13.9415 4.20503 13.4716C3.57283 13.0017 3.10329 12.3459 2.86205 11.5961C3.42811 11.7019 4.01069 11.6797 4.56705 11.5311C3.71266 11.3578 2.94445 10.8945 2.3926 10.2196C1.84074 9.54474 1.53919 8.69983 1.53905 7.82805V7.78105C2.06325 8.07265 2.64951 8.23482 3.24905 8.25405C2.44892 7.72063 1.88253 6.90197 1.66547 5.96516C1.44841 5.02834 1.59705 4.044 2.08105 3.21305C3.02884 4.37951 4.2114 5.33355 5.55193 6.01321C6.89245 6.69286 8.36095 7.08292 9.86205 7.15805C9.79711 6.87567 9.76456 6.58681 9.76505 6.29705C9.76505 5.80149 9.86267 5.31078 10.0523 4.85296C10.242 4.39513 10.52 3.97915 10.8705 3.62879C11.2209 3.27842 11.637 3.00052 12.0949 2.81097C12.5528 2.62142 13.0435 2.52392 13.539 2.52405C14.0555 2.52321 14.5666 2.62849 15.0407 2.83337C15.5148 3.03824 15.9417 3.33834 16.295 3.71505C17.1402 3.54775 17.9507 3.23801 18.692 2.79905C18.4101 3.67326 17.8202 4.41527 17.032 4.88705C17.7803 4.79835 18.5111 4.59813 19.2001 4.29305C18.6939 5.05149 18.0558 5.71297 17.316 6.24605Z" fill="#18191F" fill-opacity="0.8"/>
</svg>
