<svg width="30" height="30" viewBox="0 0 30 30" fill="none" xmlns="http://www.w3.org/2000/svg">
<path d="M25.974 9.36899C25.986 9.61199 25.9905 9.85799 25.9905 10.101C25.9905 17.586 20.295 26.214 9.88051 26.214C6.68101 26.214 3.70651 25.2765 1.20001 23.6685C2.68258 23.8478 4.18594 23.7331 5.62417 23.3311C7.0624 22.9291 8.40731 22.2475 9.58201 21.3255C8.40064 21.3032 7.25577 20.9122 6.30748 20.2073C5.35919 19.5024 4.65487 18.5188 4.29301 17.394C5.1421 17.5528 6.01597 17.5195 6.85051 17.2965C5.56893 17.0366 4.41661 16.3416 3.58883 15.3293C2.76105 14.317 2.30873 13.0497 2.30851 11.742V11.6715C3.09481 12.1089 3.97421 12.3521 4.87351 12.381C3.67332 11.5809 2.82373 10.3529 2.49814 8.94764C2.17255 7.54242 2.39551 6.06591 3.12151 4.81949C4.5432 6.56918 6.31704 8.00024 8.32783 9.01972C10.3386 10.0392 12.5414 10.6243 14.793 10.737C14.6956 10.3134 14.6468 9.88012 14.6475 9.44549C14.6475 8.70214 14.7939 7.96608 15.0785 7.27934C15.363 6.5926 15.78 5.96864 16.3057 5.44309C16.8314 4.91753 17.4554 4.50069 18.1423 4.21636C18.8291 3.93203 19.5652 3.78579 20.3085 3.78599C21.0832 3.78472 21.8499 3.94265 22.561 4.24996C23.2722 4.55727 23.9126 5.00742 24.4425 5.57249C25.7102 5.32153 26.926 4.85692 28.038 4.19849C27.6151 5.50979 26.7302 6.62282 25.548 7.33049C26.6704 7.19743 27.7665 6.8971 28.8 6.43949C28.0408 7.57714 27.0836 8.56936 25.974 9.36899Z" fill="black"/>
</svg>
